<?xml version="1.0" standalone="no"?><!DOCTYPE svg PUBLIC "-//W3C//DTD SVG 1.1//EN" "http://www.w3.org/Graphics/SVG/1.1/DTD/svg11.dtd"><svg t="1748514006891" class="icon" viewBox="0 0 1024 1024" version="1.1" xmlns="http://www.w3.org/2000/svg" p-id="13045" width="128" height="128" xmlns:xlink="http://www.w3.org/1999/xlink"><path d="M512 139.776a367.616 367.616 0 0 0-274.944 614.4 302.592 302.592 0 0 1 197.12-162.304 153.6 153.6 0 1 1 153.6 0 304.128 304.128 0 0 1 195.072 165.888A367.616 367.616 0 0 0 512 139.776z m-327.168 307.2a16.384 16.384 0 0 1 19.968-15.36 16.896 16.896 0 0 1 13.824 19.456 115.2 115.2 0 0 0-3.072 18.432 16.896 16.896 0 0 1-16.384 14.848 16.896 16.896 0 0 1-14.848-18.432zM238.592 665.6a16.896 16.896 0 0 1-7.68 0 17.92 17.92 0 0 1-14.848-9.216A347.136 347.136 0 0 1 179.2 512a16.384 16.384 0 0 1 16.384-16.896 17.408 17.408 0 0 1 17.408 16.384 304.128 304.128 0 0 0 32.768 130.56 16.384 16.384 0 0 1-7.168 23.552z m545.792-292.352a302.592 302.592 0 0 0-212.992-163.328 16.384 16.384 0 0 1-13.312-19.456 17.408 17.408 0 0 1 19.968-13.312A337.408 337.408 0 0 1 814.592 358.4a16.896 16.896 0 0 1-7.68 22.528h-7.68a16.384 16.384 0 0 1-14.848-7.68z m39.424 60.416H819.2a16.384 16.384 0 0 1-15.872-12.288v-7.68a16.896 16.896 0 0 1 10.752-20.992 16.896 16.896 0 0 1 20.992 10.752l3.072 8.704a16.896 16.896 0 0 1-14.336 21.504z" fill="#1AE6BC" p-id="13046"></path><path d="M832.512 403.968a16.896 16.896 0 0 0-20.992-10.752 16.896 16.896 0 0 0-10.752 20.992v7.68a16.384 16.384 0 0 0 15.872 12.288h4.608a16.896 16.896 0 0 0 11.776-20.992zM814.592 358.4a337.408 337.408 0 0 0-236.544-181.248 17.408 17.408 0 0 0-19.968 13.312 16.384 16.384 0 0 0 13.312 19.456 302.592 302.592 0 0 1 212.992 163.328 16.384 16.384 0 0 0 14.848 9.216h7.68a16.896 16.896 0 0 0 7.68-24.064zM196.608 483.84a16.896 16.896 0 0 0 16.384-14.848 115.2 115.2 0 0 1 3.072-18.432 16.896 16.896 0 0 0-11.264-18.944 16.384 16.384 0 0 0-19.456 13.312l-3.072 20.48a16.896 16.896 0 0 0 14.336 18.432zM212.992 512a17.408 17.408 0 0 0-17.408-16.384 16.384 16.384 0 0 0-16.384 16.384 347.136 347.136 0 0 0 36.864 145.408 17.92 17.92 0 0 0 14.848 9.216 16.896 16.896 0 0 0 7.68 0 16.384 16.384 0 0 0 7.168-22.528A304.128 304.128 0 0 1 212.992 512z" fill="#1B1A1F" p-id="13047"></path><path d="M512 109.056a398.336 398.336 0 1 0 398.336 398.336A398.848 398.848 0 0 0 512 109.056z m0 768a366.08 366.08 0 0 1-251.904-99.84 270.336 270.336 0 0 1 499.712 4.096A366.592 366.592 0 0 1 512 875.008zM389.12 456.704a122.88 122.88 0 1 1 122.88 122.88 123.392 123.392 0 0 1-122.88-122.88z m393.728 299.52a304.128 304.128 0 0 0-195.072-165.888 153.6 153.6 0 1 0-153.6 0 302.592 302.592 0 0 0-197.12 162.304 367.616 367.616 0 1 1 545.792 4.608z" fill="#1B1A1F" p-id="13048"></path><path d="M260.096 775.168a270.336 270.336 0 0 1 499.712 4.096 368.128 368.128 0 0 1-499.712-4.096z" fill="#FFFFFF" p-id="13049"></path><path d="M512 333.824a122.88 122.88 0 1 0 122.88 122.88 123.392 123.392 0 0 0-122.88-122.88z" fill="#FFFFFF" p-id="13050"></path></svg>